# xmcd CD database file
#
# Track frame offsets:
#	150
#	14059
#	37857
#	57015
#	75832
#	89847
#	107757
#	123780
#	141905
#	161625
#	180350
#	198427
#
# Disc length: 2839 seconds
#
# Revision: 3
# Processed by: cddbd v1.5.2PL0 Copyright (c) Steve Scherf et al.
# Submitted via: jetAudio 7
#
DISCID=930b150c
DTITLE=Western Union - Countrymusicfieber
DYEAR=1996
DGENRE=Country
TTITLE0=Einfach mal einfach nichts tun
TTITLE1=Wieder zuhaus
TTITLE2=Countrymusicfieber
TTITLE3=S.O.S.
TTITLE4=Mach's dir ohne mich
TTITLE5=Der Song vom Glück
TTITLE6=Lebenslang
TTITLE7=100.000 Schwächen
TTITLE8=Drei Worte
TTITLE9=Dank Dir, Vater
TTITLE10=Berlin
TTITLE11=Cowboyboots and Bluejeans
EXTD=Deutsch Country
EXTT0=
EXTT1=
EXTT2=
EXTT3=
EXTT4=
EXTT5=
EXTT6=
EXTT7=
EXTT8=
EXTT9=
EXTT10=
EXTT11=
PLAYORDER=
